<svg version="1.1" xmlns="http://www.w3.org/2000/svg" xmlns:xlink="http://www.w3.org/1999/xlink" width="4096.00" height="4096.00" viewBox="0 0 4096.0 4096.0">		<g id="document" transform="scale(1.0 1.0) translate(2048.0 2048.0)">			<g>				<path d="M-1123.2,-1984.89 L1143.8,-1984.89 C1143.8,-1984.89 1143.8,-436.007 1143.8,579.514 C978.923,1594.06 -6.93819,1984.89 -6.93819,1984.89 C-6.93819,1984.89 -966.94,1594.59 -1123.2,579.514 C-1123.2,-435.628 -1123.2,-1984.89 -1123.2,-1984.89 Z " fill="#ff0000" fill-opacity="1.00" />				<path d="M378.61,-1984.89 L1143.8,-1984.89 C1143.8,-1984.89 1143.8,-436.007 1143.8,579.514 C1048.04,1168.77 675.324,1547.62 379.676,1761.7 C379.676,-1032.29 378.61,-1984.89 378.61,-1984.89 Z " fill="#58aaf8" fill-opacity="1.00" />				<path d="M-378.61,-1984.89 L-1143.8,-1984.89 C-1143.8,-1984.89 -1143.8,-436.007 -1143.8,579.514 C-1048.04,1168.77 -675.324,1547.62 -379.676,1761.7 C-379.676,-1032.29 -378.61,-1984.89 -378.61,-1984.89 Z " fill="#2f3573" fill-opacity="1.00" />				<g>					<path d="M16.7757,280.771 C440.543,280.771 783.592,-62.2787 783.592,-486.046 C783.592,-909.813 440.543,-1252.86 16.7757,-1252.86 C-406.991,-1252.86 -750.041,-909.813 -750.041,-486.046 C-750.041,-62.2787 -406.991,280.771 16.7757,280.771 Z " fill="#7bc7f9" fill-opacity="1.00" />					<path d="M-411.784,-199.102 C-419.93,-266.317 -403.155,-284.37 -411.784,-297.372 C-422.728,-313.861 -435.26,-327.274 -447.289,-345.437 C-458.284,-362.038 -461.76,-356.24 -461.76,-377.952 C-461.76,-388.117 -423.13,-408.932 -437.78,-420.324 C-452.429,-431.717 -520.358,-433.687 -523.807,-442.76 C-525.261,-446.585 -528.762,-475.391 -510.74,-484.017 C-502.222,-488.094 -509.819,-491.081 -494.319,-502.366 C-485.672,-508.661 -507.345,-522.336 -494.319,-528.107 C-481.293,-533.878 -440.907,-531.745 -437.78,-528.107 C-425.918,-514.307 -397.823,-502.738 -392.804,-502.601 C-358.5,-501.66 -420.827,-444.292 -392.119,-433.943 C-350.174,-418.823 -376.549,-464.577 -336.195,-511.179 C-331.176,-516.975 -308.516,-530.237 -275.082,-547.031 C-285.887,-573.697 -239.114,-655.75 -172.109,-618.651 C-113.513,-586.208 -326.444,-1111.15 -351.574,-1135.27 C-376.415,-1159.12 -481.821,-1058.78 -494.319,-1054.43 C-506.817,-1050.09 -502.911,-1003.57 -523.807,-977.335 C-588.683,-895.892 -629.684,-822.332 -630.289,-820.234 C-644.141,-772.239 -658.055,-673.495 -663.339,-661.992 C-665.98,-656.241 -664.719,-613.422 -663.339,-588.883 C-661.959,-564.344 -648.194,-567.951 -648.204,-576.911 C-648.289,-655.472 -591.799,-752.114 -614.13,-695.623 C-636.462,-639.133 -630.289,-563.236 -630.289,-560.415 C-630.289,-473.653 -606.154,-447.364 -594.627,-433.943 C-593.943,-433.147 -522.878,-337.916 -523.807,-315.286 C-524.736,-292.656 -487.224,-304.723 -476.247,-280.056 C-454.293,-230.722 -463.648,-216.214 -447.289,-199.102 C-430.931,-181.989 -411.784,-199.102 -411.784,-199.102 Z " fill="#459676" fill-opacity="1.00" />					<path d="M23.3481,-98.5443 C23.3481,-98.5443 -332.885,-21.6982 -332.885,60.1319 C-332.885,141.962 -270.32,100.502 -259.448,113.16 C-256.869,116.163 -308.217,229.261 -242.037,252.539 C-175.857,275.818 -138.21,273.874 -102.422,282.042 C-56.1368,202.078 -68.0172,225.795 -61.5726,225.795 C-42.635,225.795 -3.13454,205.206 8.42979,179.664 C19.9941,154.122 73.8567,167.034 86.9983,133.362 C100.14,99.6894 163.716,30.1723 163.716,-34.2633 C163.716,-49.9903 90.8695,-135.688 86.9983,-135.688 C70.094,-135.688 57.4837,-119.76 47.2151,-105.27 C36.9465,-90.7812 23.3481,-98.5443 23.3481,-98.5443 Z " fill="#459676" fill-opacity="1.00" />					<path d="M-364.583,-405.896 C-353.75,-405.896 -347.886,-397.671 -349.816,-396.484 C-351.745,-395.297 -379.415,-392.408 -379.415,-401.444 C-379.415,-419.517 -434.851,-422.223 -433.003,-428.547 C-429.306,-441.194 -363.39,-420.818 -364.583,-405.896 Z " fill="#459676" fill-opacity="1.00" />					<path d="M-263.524,-343.551 C-269.371,-343.551 -298.012,-350.502 -296.164,-356.826 C-292.468,-369.473 -257.677,-343.551 -263.524,-343.551 Z " fill="#459676" fill-opacity="1.00" />					<path d="M-345.166,-397.009 C-320.636,-375.959 -353.683,-385.032 -358.685,-377.544 C-324.416,-347.976 -302.12,-369.067 -300.223,-368.782 C-317.578,-389.273 -322.988,-396.779 -345.166,-397.009 Z " fill="#459676" fill-opacity="1.00" />					<g>						<path d="M776.501,-433.406 C776.501,-522.614 772.784,-626.879 725.482,-741.27 C722.528,-748.414 693.205,-851.959 671.928,-876.731 C666.882,-882.607 528.545,-1082.82 422.299,-1128.01 C404.061,-1130.56 270.441,-1221.46 296.678,-1143.57 C305.954,-1116.03 240.448,-1054.52 270.025,-1004.95 C270.588,-1004.01 232.023,-972.442 237.689,-958.287 C243.355,-944.131 250.164,-926.91 255.299,-913.707 C256.326,-911.066 257.673,-881.485 255.299,-862.991 C258.783,-860.447 274.143,-848.827 278.936,-847.176 C283.729,-845.524 297.097,-844.64 301.2,-847.176 C305.303,-849.711 303.367,-863.733 305.951,-865.752 C306.597,-866.257 346.64,-846.089 354.854,-871.185 C355.829,-874.162 345.919,-879.188 337.268,-886.937 C328.618,-894.685 337.64,-898.055 337.268,-902.108 C336.526,-910.213 329.641,-908.294 319.29,-906.386 C308.939,-904.478 301.251,-931.697 301.2,-931.793 C298.106,-937.532 283.701,-951.801 296.678,-955.513 C309.655,-959.226 304.827,-931.011 308.954,-932.271 C313.081,-933.531 338.6,-922.241 330.72,-910.862 C360.31,-910.862 355.344,-955.876 366.451,-947.721 C377.558,-939.567 349.595,-920.936 355.274,-913.707 C360.952,-906.478 371.268,-908.852 366.451,-902.108 C365.808,-901.209 380.638,-892.679 384.018,-886.937 C387.397,-881.194 382.779,-883.048 386.293,-876.731 C389.808,-870.414 377.788,-873.809 377.552,-871.185 C376.844,-863.312 367.591,-850.862 366.451,-847.176 C365.31,-843.489 357.04,-849.556 354.854,-847.176 C352.669,-844.796 352.903,-833.979 350.523,-829.83 C348.142,-825.68 332.536,-842.933 328.469,-847.176 C317.226,-858.902 311.057,-858.285 311.057,-842.1 C347.97,-809.996 323.994,-799.94 323.018,-793.797 C322.043,-787.653 329.434,-784.416 328.469,-778.942 C327.504,-773.468 325.592,-763.545 323.018,-757.765 C333.062,-753.072 326.898,-748.201 323.018,-741.27 C319.139,-734.339 309.654,-736.435 305.951,-731.34 C302.248,-726.245 322.559,-725.857 319.29,-722.124 C316.021,-718.391 308.528,-719.561 305.951,-716.718 C303.374,-713.874 295.192,-705.507 293.565,-703.079 C312.172,-697.687 313.165,-705.185 330.72,-697.135 C348.275,-689.084 358.923,-678.992 352.626,-671.478 C346.329,-663.964 311.142,-643.511 305.951,-637.561 C300.76,-631.611 298.31,-630.608 296.678,-628.512 C326.466,-610.743 338.029,-560.417 342.31,-564.109 C346.591,-567.802 361.326,-573.093 377.552,-566.848 C380.735,-588.274 394.662,-589.655 398.222,-593.242 C400.003,-595.036 399.781,-596.328 402.86,-596.328 C403.886,-596.328 403.137,-603.591 403.257,-606.743 C404.447,-608.459 403.606,-608.875 408.036,-614.492 C407.693,-619.26 403.604,-627.197 402.86,-628.512 C388.277,-638.698 383.923,-657.198 409.466,-677.338 C401.304,-686.263 399.193,-703.301 409.466,-708.854 C412.035,-710.242 419.453,-708.776 422.299,-712.347 C425.145,-715.917 420.683,-724.165 423.792,-728.232 C426.9,-732.298 428.801,-738.394 432.158,-741.27 C435.515,-744.147 443.064,-735.661 446.654,-735.661 C461.016,-735.661 467.289,-731.293 477.657,-737.084 C488.024,-742.875 503.87,-743.018 504.837,-744.83 C504.999,-745.132 515.336,-743.752 518.822,-741.27 C522.307,-738.788 526.795,-734.868 527.618,-731.34 C528.44,-727.812 525.865,-741.81 527.618,-744.83 C529.37,-747.851 510.426,-754.044 510.8,-755.38 C512.295,-760.726 525.33,-755.97 525.115,-760.913 C524.9,-765.856 496.802,-760.913 492.315,-760.913 C482.402,-753.714 466.179,-762.392 459.618,-760.913 C446.495,-757.955 438.97,-767.064 436.269,-767.064 C433.568,-767.064 438.661,-769.502 442.465,-775.798 C443.367,-777.293 507.346,-772.074 514.626,-775.798 C521.905,-779.522 541.706,-776.102 554.867,-760.913 C568.029,-745.723 569.457,-770.527 581.197,-775.798 C592.938,-781.07 536.733,-804.07 546.558,-808.659 C562.461,-816.086 556.345,-815.196 557.747,-817.504 C562.612,-825.517 588.285,-802.376 596.549,-800.45 C604.812,-798.524 620.843,-794.956 620.843,-813.125 C620.843,-825.699 633.666,-829.738 633.717,-829.83 C649.835,-838.359 630.408,-861.071 644.527,-860.215 C710.25,-803.567 699.868,-787.562 699.47,-787.279 C692.444,-782.28 593.827,-719.429 607.445,-708.854 C647.202,-677.98 583.752,-679.396 572.931,-671.478 C565.207,-667.623 549.22,-657.959 529.476,-651.014 C515.785,-646.198 520.525,-672.688 514.626,-677.338 C494.178,-693.456 487.455,-645.18 432.158,-609.765 C411.262,-557.366 394.18,-578.72 384.018,-564.109 C373.855,-549.499 382.177,-539.3 377.552,-519.955 C372.927,-500.609 369.997,-479.925 366.616,-459.958 C363.235,-439.991 348.74,-427.003 342.31,-410.528 C316.591,-344.63 322.004,-298.584 366.451,-260.648 C389.861,-240.666 444.042,-187.956 451.618,-187.956 C484.7,-187.956 527.502,-158.173 557.747,-175.295 C587.991,-192.418 589.197,-206.346 607.445,-220.798 C621.099,-235.199 646.772,-241.312 671.928,-260.648 C697.084,-279.984 720.48,-277.104 725.482,-260.648 C730.484,-244.192 725.482,-229.359 725.482,-220.798 C725.482,-173.729 768.274,-363.847 776.501,-433.406 Z " fill="#459676" fill-opacity="1.00" />						<path d="M358.218,-884.487 C359.147,-885.023 353.655,-893.525 353.117,-894.448 C352.316,-895.836 351.868,-895.959 351.516,-895.755 L349.44,-894.557 C349.091,-894.356 351.312,-889.306 351.516,-888.954 C352.65,-886.99 357.294,-883.953 358.218,-884.487 Z " fill="#459676" fill-opacity="1.00" />						<path d="M340.887,-839.335 C341.351,-839.603 348.383,-835.966 348.334,-839.335 C348.285,-842.704 343.127,-849.778 342.858,-850.239 C342.056,-851.628 334.537,-851.641 334.185,-851.437 L332.109,-850.239 C331.76,-850.038 333.981,-844.988 334.185,-844.636 C335.319,-842.672 339.963,-838.801 340.887,-839.335 Z " fill="#459676" fill-opacity="1.00" />						<path d="M236.247,-728.432 C236.363,-728.499 234.983,-722.696 236.247,-720.952 C237.511,-719.208 232.182,-716.671 233.807,-714.453 C235.433,-712.235 241.573,-714.159 242.773,-712.803 C243.973,-711.447 247.031,-711.961 247.019,-712.803 C247.009,-713.477 261.092,-732.43 260.784,-734.029 C260.475,-735.628 255.133,-742.48 254.671,-744.483 C254.209,-746.487 252.409,-742.596 251.938,-744.483 C251.467,-746.37 250.566,-750.742 250.231,-751.992 C250.197,-752.118 252.099,-756.04 251.938,-758.663 C251.781,-761.226 249.567,-762.493 249.098,-762.53 C248.148,-762.605 243.411,-765.365 242.026,-765.33 C240.641,-765.294 240.528,-761.806 239.154,-761.724 C237.78,-761.641 236.523,-761.552 235.607,-761.488 C235.302,-761.467 229.724,-756.143 229.82,-754.549 C229.916,-752.956 230.137,-750.972 230.334,-749.387 C230.531,-747.803 236.251,-750.74 236.247,-750.746 C235.446,-752.135 232.786,-747.141 232.434,-746.938 L225.029,-739.633 C224.68,-739.431 226.901,-734.382 227.104,-734.029 C228.238,-732.065 235.323,-727.898 236.247,-728.432 Z " fill="#459676" fill-opacity="1.00" />						<path d="M231.182,-830.597 C231.718,-830.597 235.989,-823.932 237.631,-826.874 C239.273,-829.816 238.343,-838.521 238.341,-839.055 C238.341,-840.658 231.836,-844.429 231.429,-844.429 L229.032,-844.429 C228.629,-844.429 228.028,-838.946 228.028,-838.539 C228.028,-836.271 230.115,-830.597 231.182,-830.597 Z " fill="#459676" fill-opacity="1.00" />						<path d="M236.516,-807.881 C236.667,-807.881 237.869,-803.231 238.331,-805.284 C238.793,-807.336 238.532,-813.409 238.531,-813.782 C238.531,-814.9 236.7,-817.531 236.585,-817.531 L235.911,-817.531 C235.797,-817.531 235.628,-813.706 235.628,-813.422 C235.628,-811.839 236.215,-807.881 236.516,-807.881 Z " fill="#459676" fill-opacity="1.00" />						<path d="M220.321,-787.593 C220.472,-787.593 221.675,-782.943 222.137,-784.995 C222.599,-787.048 222.337,-793.121 222.337,-793.493 C222.337,-794.612 220.505,-797.243 220.391,-797.243 L219.716,-797.243 C219.603,-797.243 219.433,-793.417 219.433,-793.133 C219.433,-791.551 220.021,-787.593 220.321,-787.593 Z " fill="#459676" fill-opacity="1.00" />						<path d="M221.81,-776.857 C221.961,-776.857 223.163,-772.207 223.626,-774.26 C224.088,-776.312 223.826,-782.385 223.825,-782.758 C223.825,-783.876 221.994,-786.507 221.88,-786.507 L221.205,-786.507 C221.092,-786.507 220.922,-782.682 220.922,-782.398 C220.922,-780.815 221.51,-776.857 221.81,-776.857 Z " fill="#459676" fill-opacity="1.00" />						<path d="M258.551,-761.119 C258.637,-761.1 258.939,-759.296 259.368,-759.963 C259.796,-760.631 260.141,-762.818 260.171,-762.95 C260.261,-763.347 259.439,-764.517 259.374,-764.531 L258.992,-764.619 C258.928,-764.634 258.522,-763.299 258.499,-763.199 C258.37,-762.638 258.381,-761.158 258.551,-761.119 Z " fill="#459676" fill-opacity="1.00" />						<path d="M303.899,-741.924 C303.961,-741.862 303.259,-740.173 303.977,-740.511 C304.694,-740.849 306.149,-742.518 306.244,-742.614 C306.532,-742.902 306.457,-744.33 306.41,-744.377 L306.133,-744.654 C306.086,-744.701 305.033,-743.786 304.96,-743.713 C304.553,-743.306 303.776,-742.047 303.899,-741.924 Z " fill="#459676" fill-opacity="1.00" />						<path d="M303.899,-724.557 C303.961,-724.495 303.259,-722.806 303.977,-723.144 C304.694,-723.482 306.149,-725.152 306.244,-725.248 C306.532,-725.535 306.457,-726.963 306.41,-727.01 L306.133,-727.287 C306.086,-727.334 305.033,-726.42 304.96,-726.347 C304.553,-725.94 303.776,-724.681 303.899,-724.557 Z " fill="#459676" fill-opacity="1.00" />						<path d="M310.007,-722.35 C310.069,-722.288 309.367,-720.598 310.084,-720.936 C310.802,-721.275 312.256,-722.944 312.352,-723.04 C312.64,-723.328 312.564,-724.756 312.517,-724.803 L312.24,-725.08 C312.194,-725.126 311.141,-724.212 311.067,-724.139 C310.661,-723.732 309.884,-722.473 310.007,-722.35 Z " fill="#459676" fill-opacity="1.00" />						<path d="M348.719,-857.656 C349.138,-857.322 355.018,-860.98 354.468,-857.656 C353.919,-854.332 349.053,-850.793 348.719,-850.377 C347.72,-849.123 341.295,-852.17 340.976,-852.424 L338.09,-852.424 C337.775,-852.675 340.722,-857.337 340.976,-857.656 C342.39,-859.429 347.884,-858.321 348.719,-857.656 Z " fill="#459676" fill-opacity="1.00" />						<path d="M453.865,-714.777 C454.264,-714.06 453.666,-710.185 452.75,-709.787 C452.291,-709.588 444.912,-713.824 442.025,-717.342 C439.137,-720.86 440.741,-723.66 440.578,-724.323 C440.251,-725.65 442.967,-728.276 443.909,-728.276 C444.851,-728.276 453.466,-715.495 453.865,-714.777 Z " fill="#459676" fill-opacity="1.00" />						<path d="M474.874,-695.094 C475.273,-694.376 468.905,-687.617 467.989,-687.219 C467.072,-686.821 458.624,-695.328 455.737,-698.846 C452.849,-702.364 454.453,-705.164 454.29,-705.827 C453.963,-707.154 456.934,-710.29 457.876,-710.29 C458.817,-710.29 474.475,-695.811 474.874,-695.094 Z " fill="#459676" fill-opacity="1.00" />						<path d="M526.09,-707.667 C526.156,-707.75 529.043,-707.145 531.002,-707.667 C532.961,-708.188 533.194,-709.68 534.833,-710.286 C536.472,-710.893 534.273,-715.02 533.38,-715.359 C529.865,-716.693 524.054,-720.544 523.796,-720.711 C523.211,-721.087 511.025,-711.699 508.645,-709.608 C506.265,-707.518 507.051,-705.414 506.864,-704.977 C506.677,-704.54 504.888,-701.685 508.645,-701.807 C512.402,-701.93 521.704,-705.03 522.027,-704.977 C522.674,-704.871 525.735,-707.219 526.09,-707.667 Z " fill="#459676" fill-opacity="1.00" />						<path d="M291.193,-777.576 C295.89,-773.491 295.323,-765.547 296.652,-767.377 C297.981,-769.208 298.883,-774.037 300.387,-775.142 C301.891,-776.246 305.541,-776.052 307.333,-775.142 C309.126,-774.231 310.566,-772.052 311.025,-769.736 C311.483,-767.42 309.165,-763.618 309.216,-761.839 C309.268,-760.061 305.759,-755.967 306.212,-756.223 C311.212,-759.064 312.375,-762.644 314.111,-761.839 C315.162,-761.352 315.448,-759.984 316.826,-758.072 C317.738,-756.808 311.96,-750.798 312.709,-750.074 C314.824,-748.028 306.838,-747.971 302.96,-742.629 C301.991,-741.294 298.606,-734.662 296.867,-734.84 C295.128,-735.018 291.634,-733.361 291.409,-731.505 C291.183,-729.649 294.095,-725.884 292.824,-726.718 C291.552,-727.551 285.215,-722.614 285.181,-722.59 C284.873,-722.37 283.772,-719.304 284.182,-717.186 C284.285,-716.657 282.826,-717.639 282.038,-717.658 C281.25,-717.676 281.307,-714.7 279.842,-715.791 C278.377,-716.881 279.546,-717.681 280.781,-719.383 C282.017,-721.085 281.008,-723.058 279.842,-723.99 C282.592,-726.58 282.84,-729.911 280.781,-731.106 C278.723,-732.301 287.508,-736.3 285.181,-737.562 C282.854,-738.824 289.898,-740.549 289.898,-742.629 C289.898,-744.709 290.889,-749.267 289.898,-750.074 C289.105,-750.719 287.263,-740.255 284.182,-740.66 C281.102,-741.066 284.014,-737.319 279.842,-737.562 C275.67,-737.804 273.914,-733.985 271.279,-734.84 C268.643,-735.696 278.299,-743.431 272.574,-750.074 C271.356,-750.766 267.329,-745.998 267.252,-746.97 C267.176,-747.942 267.538,-749.008 268.076,-750.074 C268.613,-751.139 263.119,-752.045 263.741,-753.018 C264.363,-753.992 272.396,-757.378 272.574,-758.072 C272.752,-758.767 275.339,-760.256 274.544,-760.485 C270.571,-761.632 271.368,-769.664 271.279,-769.736 C269.325,-771.296 271.024,-765.919 267.252,-767.377 C265.593,-768.019 263.703,-769.168 262.082,-769.736 C260.461,-770.304 255.882,-774.68 254.538,-775.142 C253.195,-775.603 261.192,-768.255 254.538,-765.41 C253.711,-765.732 247.501,-775.593 247.429,-775.741 C247.414,-775.772 247.336,-765.706 246.088,-766.701 C244.84,-767.697 243.129,-774.255 241.262,-775.741 C239.395,-777.227 240.746,-768.234 238.873,-769.736 C237.001,-771.238 232.467,-774.097 231.202,-775.142 C229.938,-776.186 231.245,-779.709 231.202,-779.823 C230.991,-780.391 225.195,-782.931 224.998,-783.737 C224.801,-784.543 229.153,-793.075 229.121,-793.946 C229.089,-794.817 226.844,-798.028 227.127,-798.789 C227.41,-799.55 233.83,-807.065 234.578,-807.542 C234.766,-807.661 237.374,-800.721 238.873,-798.789 C240.372,-796.858 249.888,-807.759 251.331,-803.967 C252.774,-800.174 252.962,-795.935 254.538,-793.946 C256.114,-791.957 254.203,-783.674 254.538,-783.737 C259.101,-784.594 259.326,-790.101 263.136,-789.705 C266.946,-789.31 270.207,-788.535 272.574,-787.87 C274.941,-787.206 280.549,-781.131 280.781,-781.181 C282.178,-781.478 290.254,-778.393 291.193,-777.576 Z " fill="#459676" fill-opacity="1.00" />						<path d="M644.866,-823.48 C644.89,-823.439 644.175,-822.317 644.083,-821.407 C643.991,-820.497 644.584,-820.161 644.579,-819.372 C644.574,-818.583 646.667,-818.854 646.952,-819.177 C647.351,-819.629 649.162,-819.652 649.024,-820.534 C648.722,-822.46 650.666,-823.427 650.738,-823.48 C650.99,-823.667 648.801,-825.812 650.738,-830.588 C651.007,-831.25 648.84,-830.197 647.975,-831.406 C647.111,-832.615 647.029,-836.092 646.952,-836.167 C646.797,-836.315 644.981,-842.069 645.33,-835.92 C645.679,-829.77 643.019,-826.155 642.945,-826.027 C642.797,-825.771 644.733,-823.702 644.866,-823.48 Z " fill="#459676" fill-opacity="1.00" />					</g>					<path d="M-74.0142,-767.272 C-36.8391,-761.526 -76.4056,-809.507 -41.5103,-861.064 C-6.61516,-912.62 6.0777,-879.338 22.1126,-915.878 C38.1476,-952.419 3.02092,-1034.46 14.3285,-1099.05 C25.636,-1163.64 -191.055,-1134.87 -144.43,-1077.87 C-97.8048,-1020.87 -117.06,-872.741 -117.06,-872.741 C-108.414,-807.948 -111.189,-773.018 -74.0142,-767.272 Z " fill="#459676" fill-opacity="1.00" />					<path d="M34.5412,-878.129 C23.7333,-861.079 47.7166,-862.943 58.5381,-862.73 C69.3596,-862.517 72.8715,-875.244 85.3793,-887.667 C97.8871,-900.091 55.3877,-911.014 34.5412,-878.129 Z " fill="#459676" fill-opacity="1.00" />					<path d="M12.0181,287.693 C435.785,287.693 778.835,-55.3562 778.835,-479.123 C778.835,-902.891 435.785,-1245.94 12.0181,-1245.94 C-411.749,-1245.94 -754.799,-902.891 -754.799,-479.123 C-754.799,-55.3562 -411.749,287.693 12.0181,287.693 Z " fill="none" stroke-width="13.84" stroke="#000000" stroke-linecap="square" stroke-linejoin="miter" />					<path d="M51.8558,-330.274 L315.925,-1077.61 C361.402,-1185.01 386.037,-1253.67 407.082,-1274.95 C428.127,-1296.24 458.727,-1306.88 498.882,-1306.88 L498.882,-1387.44 L104.529,-1387.44 L104.529,-1293.82 C177.582,-1293.82 214.108,-1284.39 214.108,-1239.39 C214.108,-1216.66 207.093,-1188.84 193.063,-1155.94 L27.9557,-616.897 L-185.737,-1120.56 C-206.54,-1166.04 -234.867,-1214.23 -234.867,-1234.06 C-234.867,-1269.86 -144.565,-1293.82 -71.5119,-1293.82 L-71.5119,-1387.44 L-594.736,-1387.44 L-594.736,-1306.88 C-557.484,-1306.88 -530.391,-1302.53 -513.459,-1293.82 C-496.526,-1285.11 -482.979,-1272.17 -472.82,-1255 C-462.66,-1237.82 -444.034,-1198.76 -416.941,-1137.8 L-71.5119,-330.274 L51.8558,-330.274 Z " fill="#e4c633" fill-opacity="1.00" stroke-width="11.49" stroke="#000000" stroke-linecap="square" stroke-linejoin="miter" />					<path d="M-193.885,-141.863 L-124.919,-252.296 L-965.221,-191.528 L-386.32,-70.8691 L-451.175,60.1365 L823.011,-141.863 L-193.885,-141.863 Z " fill="#f8c027" fill-opacity="1.00" stroke-width="11.49" stroke="#000000" stroke-linecap="square" stroke-linejoin="miter" /></g></g></g></svg>